{
  "accessors": [
    {
      "bufferView": 0,
      "componentType": 5125,
      "count": 42783,
      "type": "SCALAR"
    },
    {
      "bufferView": 1,
      "componentType": 5126,
      "count": 14158,
      "max": [
        10.9483013153076,
        164.264282226562,
        11.5520515441895
      ],
      "min": [
        -10.1415557861328,
        114.45809173584,
        -10.9379215240479
      ],
      "type": "VEC3"
    },
    {
      "bufferView": 2,
      "componentType": 5126,
      "count": 14158,
      "type": "VEC3"
    },
    {
      "bufferView": 3,
      "componentType": 5126,
      "count": 14158,
      "type": "VEC4"
    },
    {
      "bufferView": 4,
      "componentType": 5126,
      "count": 14158,
      "type": "VEC2"
    },
    {
      "bufferView": 5,
      "componentType": 5125,
      "count": 136641,
      "type": "SCALAR"
    },
    {
      "bufferView": 6,
      "componentType": 5126,
      "count": 45101,
      "max": [
        34.1928215026855,
        78.4225540161133,
        36.6290702819824
      ],
      "min": [
        -39.0734024047852,
        30.884578704834,
        -35.8425979614258
      ],
      "type": "VEC3"
    },
    {
      "bufferView": 7,
      "componentType": 5126,
      "count": 45101,
      "type": "VEC3"
    },
    {
      "bufferView": 8,
      "componentType": 5126,
      "count": 45101,
      "type": "VEC4"
    },
    {
      "bufferView": 9,
      "componentType": 5126,
      "count": 45101,
      "type": "VEC2"
    },
    {
      "bufferView": 10,
      "componentType": 5125,
      "count": 109296,
      "type": "SCALAR"
    },
    {
      "bufferView": 11,
      "componentType": 5126,
      "count": 41886,
      "max": [
        98.1312789916992,
        138.190200805664,
        100.62491607666
      ],
      "min": [
        -102.650688171387,
        0.531990051269531,
        -100.132476806641
      ],
      "type": "VEC3"
    },
    {
      "bufferView": 12,
      "componentType": 5126,
      "count": 41886,
      "type": "VEC3"
    },
    {
      "bufferView": 13,
      "componentType": 5126,
      "count": 41886,
      "type": "VEC4"
    },
    {
      "bufferView": 14,
      "componentType": 5126,
      "count": 41886,
      "type": "VEC2"
    }
  ],
  "asset": {
    "generator": "Adobe Substance 3D Painter 9.0.0",
    "version": "2.0"
  },
  "bufferViews": [
    {
      "buffer": 0,
      "byteLength": 171132,
      "target": 34963
    },
    {
      "buffer": 0,
      "byteLength": 169896,
      "byteOffset": 171132,
      "target": 34962
    },
    {
      "buffer": 0,
      "byteLength": 169896,
      "byteOffset": 341028,
      "target": 34962
    },
    {
      "buffer": 0,
      "byteLength": 226528,
      "byteOffset": 510924,
      "target": 34962
    },
    {
      "buffer": 0,
      "byteLength": 113264,
      "byteOffset": 737452,
      "target": 34962
    },
    {
      "buffer": 0,
      "byteLength": 546564,
      "byteOffset": 850716,
      "target": 34963
    },
    {
      "buffer": 0,
      "byteLength": 541212,
      "byteOffset": 1397280,
      "target": 34962
    },
    {
      "buffer": 0,
      "byteLength": 541212,
      "byteOffset": 1938492,
      "target": 34962
    },
    {
      "buffer": 0,
      "byteLength": 721616,
      "byteOffset": 2479704,
      "target": 34962
    },
    {
      "buffer": 0,
      "byteLength": 360808,
      "byteOffset": 3201320,
      "target": 34962
    },
    {
      "buffer": 0,
      "byteLength": 437184,
      "byteOffset": 3562128,
      "target": 34963
    },
    {
      "buffer": 0,
      "byteLength": 502632,
      "byteOffset": 3999312,
      "target": 34962
    },
    {
      "buffer": 0,
      "byteLength": 502632,
      "byteOffset": 4501944,
      "target": 34962
    },
    {
      "buffer": 0,
      "byteLength": 670176,
      "byteOffset": 5004576,
      "target": 34962
    },
    {
      "buffer": 0,
      "byteLength": 335088,
      "byteOffset": 5674752,
      "target": 34962
    }
  ],
  "buffers": [
    {
      "byteLength": 6009840,
      "uri": "text.bin"
    }
  ],
  "images": [
    {
      "uri": "Estatuas_baseColor.png"
    },
    {
      "uri": "Estatuas_occlusionRoughnessMetallic.png"
    },
    {
      "uri": "Estatuas_normal.png"
    },
    {
      "uri": "Fuente_baseColor.png"
    },
    {
      "uri": "Fuente_occlusionRoughnessMetallic.png"
    },
    {
      "uri": "Fuente_normal.png"
    },
    {
      "uri": "Neptuno_baseColor.png"
    },
    {
      "uri": "Neptuno_occlusionRoughnessMetallic.png"
    },
    {
      "uri": "Neptuno_normal.png"
    }
  ],
  "materials": [
    {
      "alphaMode": "OPAQUE",
      "name": "Estatuas",
      "normalTexture": {
        "index": 2
      },
      "occlusionTexture": {
        "index": 1
      },
      "pbrMetallicRoughness": {
        "baseColorTexture": {
          "index": 0
        },
        "metallicRoughnessTexture": {
          "index": 1
        }
      }
    },
    {
      "alphaMode": "OPAQUE",
      "name": "Fuente",
      "normalTexture": {
        "index": 5
      },
      "occlusionTexture": {
        "index": 4
      },
      "pbrMetallicRoughness": {
        "baseColorTexture": {
          "index": 3
        },
        "metallicRoughnessTexture": {
          "index": 4
        }
      }
    },
    {
      "alphaMode": "OPAQUE",
      "name": "Neptuno",
      "normalTexture": {
        "index": 8
      },
      "occlusionTexture": {
        "index": 7
      },
      "pbrMetallicRoughness": {
        "baseColorTexture": {
          "index": 6
        },
        "metallicRoughnessTexture": {
          "index": 7
        }
      }
    }
  ],
  "meshes": [
    {
      "name": "Fontlow.003",
      "primitives": [
        {
          "attributes": {
            "NORMAL": 2,
            "POSITION": 1,
            "TANGENT": 3,
            "TEXCOORD_0": 4
          },
          "indices": 0,
          "material": 2,
          "mode": 4
        }
      ]
    },
    {
      "name": "Fontlow.003",
      "primitives": [
        {
          "attributes": {
            "NORMAL": 7,
            "POSITION": 6,
            "TANGENT": 8,
            "TEXCOORD_0": 9
          },
          "indices": 5,
          "material": 0,
          "mode": 4
        }
      ]
    },
    {
      "name": "Fontlow.003",
      "primitives": [
        {
          "attributes": {
            "NORMAL": 12,
            "POSITION": 11,
            "TANGENT": 13,
            "TEXCOORD_0": 14
          },
          "indices": 10,
          "material": 1,
          "mode": 4
        }
      ]
    }
  ],
  "nodes": [
    {
      "children": [
        1
      ],
      "name": "correct.obj"
    },
    {
      "children": [
        2,
        3,
        4
      ],
      "name": "Fontlow.003"
    },
    {
      "mesh": 0,
      "name": "Fontlow.003"
    },
    {
      "mesh": 1,
      "name": "Fontlow.003"
    },
    {
      "mesh": 2,
      "name": "Fontlow.003"
    }
  ],
  "samplers": [
    {
      "magFilter": 9729,
      "minFilter": 9985,
      "wrapS": 10497,
      "wrapT": 10497
    }
  ],
  "scene": 0,
  "scenes": [
    {
      "name": "Scene",
      "nodes": [
        0
      ]
    }
  ],
  "textures": [
    {
      "sampler": 0,
      "source": 0
    },
    {
      "sampler": 0,
      "source": 1
    },
    {
      "sampler": 0,
      "source": 2
    },
    {
      "sampler": 0,
      "source": 3
    },
    {
      "sampler": 0,
      "source": 4
    },
    {
      "sampler": 0,
      "source": 5
    },
    {
      "sampler": 0,
      "source": 6
    },
    {
      "sampler": 0,
      "source": 7
    },
    {
      "sampler": 0,
      "source": 8
    }
  ]
}