{
	"asset":{
		"generator":"Khronos glTF Blender I/O v4.3.47",
		"version":"2.0"
	},
	"scene":0,
	"scenes":[
		{
			"name":"Scene",
			"nodes":[
				0
			]
		}
	],
	"nodes":[
		{
			"mesh":0,
			"name":"Fontlow.001",
			"scale":[
				0.1414956897497177,
				0.1414956897497177,
				0.1414956897497177
			]
		}
	],
	"animations":[
		{
			"channels":[
				{
					"sampler":0,
					"target":{
						"node":0,
						"path":"weights"
					}
				}
			],
			"name":"Key.002Action",
			"samplers":[
				{
					"input":6,
					"interpolation":"LINEAR",
					"output":7
				}
			]
		}
	],
	"materials":[
		{
			"name":"Neptuno",
			"normalTexture":{
				"index":0
			},
			"occlusionTexture":{
				"index":1
			},
			"pbrMetallicRoughness":{
				"baseColorTexture":{
					"index":2
				},
				"metallicRoughnessTexture":{
					"index":1
				}
			}
		}
	],
	"meshes":[
		{
			"extras":{
				"targetNames":[
					"animexample"
				]
			},
			"name":"Fontlow.003",
			"primitives":[
				{
					"attributes":{
						"POSITION":0,
						"NORMAL":1,
						"TEXCOORD_0":2
					},
					"indices":3,
					"material":0,
					"targets":[
						{
							"POSITION":4,
							"NORMAL":5
						}
					]
				}
			],
			"weights":[
				0
			]
		}
	],
	"textures":[
		{
			"sampler":0,
			"source":0
		},
		{
			"sampler":0,
			"source":1
		},
		{
			"sampler":0,
			"source":2
		}
	],
	"images":[
		{
			"mimeType":"image/png",
			"name":"Image_8",
			"uri":"Image_8.png"
		},
		{
			"mimeType":"image/png",
			"name":"Image_7",
			"uri":"Image_7.png"
		},
		{
			"mimeType":"image/png",
			"name":"Image_6",
			"uri":"Image_6.png"
		}
	],
	"accessors":[
		{
			"bufferView":0,
			"componentType":5126,
			"count":14036,
			"max":[
				10.948301315307617,
				164.2642822265625,
				11.552051544189453
			],
			"min":[
				-10.141555786132812,
				114.45809173583984,
				-10.937921524047852
			],
			"type":"VEC3"
		},
		{
			"bufferView":1,
			"componentType":5126,
			"count":14036,
			"type":"VEC3"
		},
		{
			"bufferView":2,
			"componentType":5126,
			"count":14036,
			"type":"VEC2"
		},
		{
			"bufferView":3,
			"componentType":5123,
			"count":42783,
			"type":"SCALAR"
		},
		{
			"bufferView":4,
			"componentType":5126,
			"count":14036,
			"max":[
				1.1879186630249023,
				0.3120574951171875,
				0.886479377746582
			],
			"min":[
				-0.35667920112609863,
				-0.5416030883789062,
				-1.3153619766235352
			],
			"type":"VEC3"
		},
		{
			"bufferView":5,
			"componentType":5126,
			"count":14036,
			"type":"VEC3"
		},
		{
			"bufferView":6,
			"componentType":5126,
			"count":61,
			"max":[
				1
			],
			"min":[
				0
			],
			"type":"SCALAR"
		},
		{
			"bufferView":7,
			"componentType":5126,
			"count":61,
			"type":"SCALAR"
		}
	],
	"bufferViews":[
		{
			"buffer":0,
			"byteLength":168432,
			"byteOffset":0,
			"target":34962
		},
		{
			"buffer":0,
			"byteLength":168432,
			"byteOffset":168432,
			"target":34962
		},
		{
			"buffer":0,
			"byteLength":112288,
			"byteOffset":336864,
			"target":34962
		},
		{
			"buffer":0,
			"byteLength":85566,
			"byteOffset":449152,
			"target":34963
		},
		{
			"buffer":0,
			"byteLength":168432,
			"byteOffset":534720,
			"target":34962
		},
		{
			"buffer":0,
			"byteLength":168432,
			"byteOffset":703152,
			"target":34962
		},
		{
			"buffer":0,
			"byteLength":244,
			"byteOffset":871584
		},
		{
			"buffer":0,
			"byteLength":244,
			"byteOffset":871828
		}
	],
	"samplers":[
		{
			"magFilter":9729,
			"minFilter":9987
		}
	],
	"buffers":[
		{
			"byteLength":872072,
			"uri":"PoseMetalgear.bin"
		}
	]
}
